<svg xmlns="http://www.w3.org/2000/svg" width="332" height="68" viewBox="0 0 332 68">
<g>
<path d="M 107.63 51.89 C103.68,55.58 96.57,55.87 91.77,52.55 C89.73,51.13 87.59,49.10 87.02,48.05 C86.46,46.99 86.00,40.51 86.00,33.63 C86.00,21.81 85.89,21.10 83.90,20.47 C80.12,19.27 79.52,21.37 79.00,37.80 L 78.50 53.50 L 74.25 53.81 L 70.00 54.11 L 70.00 37.71 C70.00,28.68 70.46,19.97 71.03,18.35 C72.38,14.47 76.75,12.00 82.26,12.00 C93.52,12.00 96.93,16.95 96.79,33.15 C96.71,43.15 97.15,45.00 99.58,45.00 C102.16,45.00 103.27,39.81 103.41,27.00 C103.49,20.12 103.91,13.94 104.34,13.25 C104.77,12.56 106.89,12.00 109.06,12.00 L 113.00 12.00 L 113.00 28.05 C113.00,45.24 112.53,47.31 107.63,51.89 ZM 264.50 42.50 L 263.50 53.50 L 259.46 53.80 C257.24,53.96 255.11,53.77 254.71,53.38 C253.68,52.35 253.86,13.76 254.91,12.11 C256.20,10.07 274.08,11.17 279.75,13.65 C285.10,15.98 287.51,21.29 286.77,29.08 C286.36,33.27 285.63,34.84 282.69,37.78 C279.40,41.07 278.50,41.41 271.80,41.93 ZM 192.79 45.21 L 192.50 53.50 L 188.24 53.81 C185.38,54.02 183.81,53.68 183.47,52.78 C183.19,52.04 183.08,42.68 183.23,31.97 L 183.50 12.50 L 185.85 12.17 C187.15,11.98 189.28,12.11 190.60,12.44 C192.86,13.00 193.00,13.46 193.00,20.41 C193.00,26.21 193.34,27.92 194.58,28.39 C197.38,29.47 207.56,29.04 208.80,27.80 C209.52,27.08 210.00,23.63 210.00,19.25 L 210.00 11.89 L 214.75 12.20 L 219.50 12.50 L 219.50 53.50 L 214.79 53.80 L 210.08 54.11 L 209.79 45.80 L 209.50 37.50 L 201.29 37.21 L 193.08 36.92 ZM 317.66 52.23 C315.91,53.63 313.40,53.96 304.42,53.98 C298.32,53.99 293.03,53.70 292.67,53.33 C292.30,52.97 292.00,51.17 292.00,49.33 L 292.00 46.00 L 301.35 46.00 C309.13,46.00 310.97,45.69 312.35,44.17 C316.01,40.12 313.01,37.00 305.46,37.00 C294.95,37.00 289.12,31.43 290.34,22.55 C291.61,13.27 294.86,11.45 309.47,11.85 C314.99,12.00 319.87,12.49 320.33,12.94 C320.78,13.39 321.01,15.05 320.83,16.63 L 320.50 19.50 L 311.34 19.79 C301.37,20.10 299.32,21.14 300.37,25.35 C300.91,27.50 301.63,27.78 307.74,28.21 C318.50,28.98 324.01,33.21 324.00,40.70 C323.99,43.92 320.81,49.70 317.66,52.23 ZM 147.12 46.00 L 146.50 53.50 L 136.45 53.78 C127.34,54.04 126.07,53.85 122.96,51.75 C116.97,47.72 115.52,42.23 118.81,36.10 C120.56,32.82 120.56,32.62 118.64,28.73 C116.83,25.07 116.78,24.38 118.08,20.70 C120.50,13.84 123.41,12.50 135.82,12.50 L 146.50 12.50 L 146.50 19.50 L 138.00 20.00 C128.75,20.54 127.00,21.17 127.00,23.94 C127.00,27.01 129.76,28.29 137.54,28.78 C144.84,29.25 145.00,29.32 145.00,31.93 C145.00,36.02 143.26,37.00 136.00,37.00 C129.01,37.00 127.00,38.00 127.00,41.50 C127.00,45.23 128.93,46.00 138.26,46.00 ZM 247.39 53.70 C245.53,55.06 226.94,55.61 225.67,54.33 C225.30,53.97 225.00,51.94 225.00,49.83 C225.00,46.46 225.29,46.00 227.38,46.00 C231.49,46.00 232.09,44.07 231.78,31.86 L 231.50 20.50 L 228.25 20.19 C225.30,19.90 225.00,19.57 225.00,16.56 C225.00,11.35 226.65,10.66 237.32,11.46 C242.44,11.85 247.21,12.51 247.90,12.94 C248.59,13.37 249.01,15.02 248.83,16.60 C248.56,18.93 247.91,19.59 245.50,20.01 L 242.50 20.52 L 242.50 45.48 L 245.50 45.99 C247.93,46.41 248.56,47.07 248.84,49.46 C249.06,51.41 248.58,52.84 247.39,53.70 ZM 64.50 50.01 L 64.50 53.50 L 52.73 53.78 C40.09,54.08 39.46,53.84 40.17,48.82 C40.41,47.15 41.25,46.41 43.18,46.19 C47.59,45.68 48.09,44.13 47.78,31.86 L 47.50 20.50 L 44.00 20.00 C40.76,19.54 40.50,19.24 40.50,16.00 L 40.50 12.50 L 64.50 12.50 L 64.50 15.99 C64.50,19.09 64.16,19.54 61.50,20.00 L 58.50 20.52 L 58.50 45.48 L 61.50 46.00 C64.16,46.46 64.50,46.91 64.50,50.01 ZM 35.92 52.60 C34.56,54.23 26.52,54.33 20.68,52.78 C15.50,51.41 9.38,43.73 8.44,37.42 C6.22,22.67 13.64,13.38 29.08,11.56 C35.50,10.80 37.36,12.03 36.82,16.69 C36.56,19.00 35.96,19.55 33.50,19.78 C27.74,20.32 22.02,23.07 20.48,26.04 C18.55,29.77 18.59,36.31 20.57,40.13 C22.34,43.55 27.26,46.00 32.36,46.00 C35.21,46.00 35.89,46.43 36.43,48.60 C36.81,50.07 36.58,51.80 35.92,52.60 ZM 178.64 52.50 C177.86,54.52 167.74,54.46 163.00,52.41 C155.76,49.27 150.00,40.91 150.00,33.53 C150.00,27.55 153.08,20.16 157.06,16.56 C160.20,13.73 161.85,13.07 167.21,12.49 C177.16,11.43 178.50,11.84 178.50,16.00 C178.50,19.49 178.48,19.50 173.11,20.16 C164.65,21.19 160.04,25.71 160.02,33.00 C160.00,40.29 166.11,46.00 173.93,46.00 C177.40,46.00 178.05,46.35 178.59,48.50 C178.93,49.87 178.96,51.67 178.64,52.50 ZM 264.67 33.33 C265.03,33.70 267.08,34.00 269.21,34.00 C273.63,34.00 278.00,30.52 278.00,27.00 C278.00,23.23 273.64,20.00 268.55,20.00 L 264.00 20.00 L 264.00 26.33 C264.00,29.82 264.30,32.97 264.67,33.33 Z" fill="#303030"/>
</g>
</svg>